<svg width="77" height="57" viewBox="0 0 77 57" fill="none" xmlns="http://www.w3.org/2000/svg">
<path d="M76.895 44.8932L72.535 14.2532C71.415 6.3732 64.655 0.533203 56.695 0.533203H20.455C12.495 0.533203 5.73497 6.3732 4.61497 14.2532L0.254968 44.8932C-0.625032 51.0532 4.13497 56.5332 10.335 56.5332C13.055 56.5332 15.615 55.4532 17.535 53.5332L26.575 44.5332H50.575L59.575 53.5332C61.495 55.4532 64.095 56.5332 66.775 56.5332C73.015 56.5332 77.775 51.0532 76.895 44.8932ZM34.575 24.5332H26.575V32.5332H22.575V24.5332H14.575V20.5332H22.575V12.5332H26.575V20.5332H34.575V24.5332ZM50.575 20.5332C48.375 20.5332 46.575 18.7332 46.575 16.5332C46.575 14.3332 48.375 12.5332 50.575 12.5332C52.775 12.5332 54.575 14.3332 54.575 16.5332C54.575 18.7332 52.775 20.5332 50.575 20.5332ZM58.575 32.5332C56.375 32.5332 54.575 30.7332 54.575 28.5332C54.575 26.3332 56.375 24.5332 58.575 24.5332C60.775 24.5332 62.575 26.3332 62.575 28.5332C62.575 30.7332 60.775 32.5332 58.575 32.5332Z" fill="#8EB6F2"/>
</svg>
