<svg width="77" height="56" viewBox="0 0 77 56" fill="none" xmlns="http://www.w3.org/2000/svg">
<path d="M76.7451 44.36L72.3851 13.72C71.2651 5.84 64.5051 0 56.5451 0H20.3051C12.3451 0 5.58506 5.84 4.46507 13.72L0.105065 44.36C-0.774935 50.52 3.98507 56 10.1851 56C12.9051 56 15.4651 54.92 17.3851 53L26.4251 44H50.4251L59.4251 53C61.3451 54.92 63.9451 56 66.6251 56C72.8651 56 77.6251 50.52 76.7451 44.36ZM34.4251 24H26.4251V32H22.4251V24H14.4251V20H22.4251V12H26.4251V20H34.4251V24ZM50.4251 20C48.2251 20 46.4251 18.2 46.4251 16C46.4251 13.8 48.2251 12 50.4251 12C52.6251 12 54.4251 13.8 54.4251 16C54.4251 18.2 52.6251 20 50.4251 20ZM58.4251 32C56.2251 32 54.4251 30.2 54.4251 28C54.4251 25.8 56.2251 24 58.4251 24C60.6251 24 62.4251 25.8 62.4251 28C62.4251 30.2 60.6251 32 58.4251 32Z" fill="#8EB6F2"/>
</svg>
